<?xml version="1.0" standalone="no"?>
<!DOCTYPE svg PUBLIC "-//W3C//DTD SVG 20010904//EN"
 "http://www.w3.org/TR/2001/REC-SVG-20010904/DTD/svg10.dtd">
<svg version="1.0" xmlns="http://www.w3.org/2000/svg"
 width="656.000000pt" height="656.000000pt" viewBox="0 0 656.000000 656.000000"
 preserveAspectRatio="xMidYMid meet">
<metadata>
Created by potrace 1.14, written by Peter Selinger 2001-2017
</metadata>
<g transform="translate(0.000000,656.000000) scale(0.100000,-0.100000)"
fill="#000000" stroke="none">
<path d="M2910 6549 c-528 -27 -1014 -117 -1441 -265 -178 -62 -305 -116 -557
-237 l-212 -102 3 -1505 c3 -1607 1 -1528 52 -1819 90 -521 306 -1011 612
-1391 361 -449 1121 -954 1781 -1184 l132 -46 148 54 c505 184 985 466 1417
831 541 458 859 1077 982 1910 16 110 18 246 21 1636 l3 1515 -233 111 c-433
207 -731 309 -1145 392 -457 92 -1019 128 -1563 100z m862 -429 c588 -45 1096
-172 1546 -385 l112 -54 -1 -1058 0 -1058 -323 328 -323 329 -304 -312 -305
-311 -449 461 -449 461 -270 -278 c-148 -153 -350 -359 -448 -458 l-178 -180
-308 308 -308 308 -49 -53 c-27 -29 -172 -178 -322 -330 l-273 -277 0 1059 0
1060 58 29 c411 207 940 349 1490 401 308 30 789 34 1104 10z m-1742 -2760
c41 -12 131 -48 200 -80 140 -65 198 -80 303 -80 98 0 169 20 317 89 181 85
231 96 430 96 196 0 258 -14 434 -100 133 -64 209 -85 307 -85 104 0 184 22
312 85 158 77 233 96 400 102 197 8 279 -10 477 -103 63 -30 139 -59 169 -66
l54 -13 -7 -135 c-3 -74 -9 -152 -12 -173 -7 -37 -7 -37 -43 -31 -94 16 -166
40 -281 94 -157 74 -236 94 -350 87 -91 -6 -170 -30 -264 -78 -290 -151 -602
-152 -898 -3 -109 55 -174 75 -268 81 -113 7 -192 -12 -350 -86 -142 -66 -207
-86 -337 -101 -174 -21 -347 13 -536 105 -236 114 -378 114 -617 -2 -102 -49
-311 -115 -324 -102 -6 6 -26 225 -26 289 l0 55 52 13 c28 6 104 36 167 66
101 48 205 83 291 100 14 2 93 3 175 1 118 -2 166 -7 225 -25z m27 -882 l133
-133 135 135 135 134 45 -44 45 -44 0 -121 0 -120 -180 -180 -180 -180 -180
180 -180 180 0 120 0 119 42 43 c23 24 45 43 47 43 3 0 65 -60 138 -132z
m1078 2 c71 -71 134 -130 140 -130 5 0 69 59 142 132 l133 132 45 -44 45 -44
0 -121 0 -120 -180 -180 -180 -180 -185 185 -185 185 0 115 0 114 42 43 c23
24 45 43 48 43 3 0 64 -58 135 -130z m1092 -2 l133 -133 135 135 135 134 45
-44 45 -44 0 -121 0 -120 -180 -180 -180 -180 -180 180 -180 180 0 120 0 119
42 43 c23 24 45 43 47 43 3 0 65 -60 138 -132z m-2170 -670 l133 -133 133 133
c73 72 137 132 142 132 5 0 26 -17 47 -37 l38 -37 0 -126 0 -125 -180 -180
-180 -180 -180 180 -180 180 0 120 0 119 42 43 c23 24 45 43 47 43 3 0 65 -60
138 -132z m1090 0 l133 -133 135 135 135 134 45 -44 45 -44 0 -121 0 -120
-180 -180 -180 -180 -185 185 -185 185 0 115 0 114 42 43 c23 24 47 43 52 43
6 0 70 -60 143 -132z m1080 0 l133 -133 135 135 135 134 45 -44 45 -44 0 -121
0 -120 -180 -180 -180 -180 -180 180 -180 180 0 120 0 119 42 43 c23 24 45 43
47 43 3 0 65 -60 138 -132z m-1715 -575 l38 -37 0 -125 0 -125 -46 -47 -47
-48 -76 51 c-42 28 -98 67 -124 86 l-49 35 123 123 c68 68 128 124 133 124 6
0 27 -17 48 -37z m635 -95 l133 -133 135 135 135 134 45 -44 45 -44 0 -115 0
-116 -182 -182 -183 -183 -182 182 -183 183 0 115 0 114 42 43 c23 24 47 43
52 43 6 0 70 -60 143 -132z m1071 9 c142 -143 144 -115 -17 -226 l-105 -71
-48 47 -48 47 0 120 0 120 42 43 c23 24 45 43 48 43 3 0 61 -55 128 -123z"/>
<path d="M2743 5869 c-87 -10 -214 -42 -277 -69 l-46 -19 0 -61 0 -60 -70 0
-70 0 0 -465 0 -465 995 0 995 0 0 465 0 465 -65 0 -64 0 -3 62 -3 62 -77 27
c-216 78 -542 85 -743 16 -33 -12 -47 -11 -115 9 -135 39 -301 51 -457 33z
m302 -179 c39 -6 87 -15 108 -21 l37 -10 0 -355 c0 -334 -1 -355 -17 -350
-135 39 -431 39 -565 0 -17 -5 -18 16 -18 350 l0 355 40 11 c107 29 291 37
415 20z m770 0 c39 -6 87 -15 108 -21 l37 -10 0 -355 c0 -306 -2 -355 -14
-351 -103 40 -435 40 -568 1 -17 -5 -18 16 -18 350 l0 355 40 11 c107 29 291
37 415 20z"/>
</g>
</svg>
